<?xml version="1.0" encoding="UTF-8" standalone="yes"?><svg xmlns="http://www.w3.org/2000/svg" xmlns:xlink="http://www.w3.org/1999/xlink" height="311px" style="width:325px;height:311px;" version="1.1" viewBox="0 0 325 311" width="325px"><defs><filter height="300%" id="f1" width="300%" x="-1" y="-1"><feGaussianBlur result="blurOut" stdDeviation="2.0"/><feColorMatrix in="blurOut" result="blurOut2" type="matrix" values="0 0 0 0 0 0 0 0 0 0 0 0 0 0 0 0 0 0 .4 0"/><feOffset dx="4.0" dy="4.0" in="blurOut2" result="blurOut3"/><feBlend in="SourceGraphic" in2="blurOut3" mode="normal"/></filter></defs><g><rect fill="#FEFECE" filter="url(#f1)" height="32" style="stroke: #A80036; stroke-width: 1.5;" width="119" x="178.5" y="93"/><ellipse cx="193.5" cy="109" fill="#B4A7E5" rx="11" ry="11" style="stroke: #A80036; stroke-width: 1.0;"/><path d="M189.4277,104.7651 L189.4277,102.6069 L196.8071,102.6069 L196.8071,104.7651 L194.3418,104.7651 L194.3418,112.8418 L196.8071,112.8418 L196.8071,115 L189.4277,115 L189.4277,112.8418 L191.8931,112.8418 L191.8931,104.7651 Z "/><text fill="#000000" font-family="sans-serif" font-size="12" font-style="italic" lengthAdjust="spacingAndGlyphs" textLength="87" x="207.5" y="113.5352">UserRepository</text><rect fill="#FEFECE" filter="url(#f1)" height="32" style="stroke: #A80036; stroke-width: 1.5;" width="144" x="172" y="185"/><ellipse cx="187" cy="201" fill="#ADD1B2" rx="11" ry="11" style="stroke: #A80036; stroke-width: 1.0;"/><path d="M189.9731,206.6431 Q189.3921,206.9419 188.7529,207.0913 Q188.1138,207.2407 187.4082,207.2407 Q184.9014,207.2407 183.5815,205.5889 Q182.2617,203.937 182.2617,200.8159 Q182.2617,197.6865 183.5815,196.0347 Q184.9014,194.3828 187.4082,194.3828 Q188.1138,194.3828 188.7612,194.5322 Q189.4087,194.6816 189.9731,194.9805 L189.9731,197.7031 Q189.3423,197.1221 188.7488,196.8523 Q188.1553,196.5825 187.5244,196.5825 Q186.1797,196.5825 185.4949,197.6492 Q184.8101,198.7158 184.8101,200.8159 Q184.8101,202.9077 185.4949,203.9744 Q186.1797,205.041 187.5244,205.041 Q188.1553,205.041 188.7488,204.7712 Q189.3423,204.5015 189.9731,203.9204 Z "/><text fill="#000000" font-family="sans-serif" font-size="12" lengthAdjust="spacingAndGlyphs" textLength="112" x="201" y="205.5352">UserRepositoryImpl</text><rect fill="#FEFECE" filter="url(#f1)" height="32" style="stroke: #A80036; stroke-width: 1.5;" width="123" x="13.5" y="185"/><ellipse cx="28.5" cy="201" fill="#ADD1B2" rx="11" ry="11" style="stroke: #A80036; stroke-width: 1.0;"/><path d="M31.4731,206.6431 Q30.8921,206.9419 30.2529,207.0913 Q29.6138,207.2407 28.9082,207.2407 Q26.4014,207.2407 25.0815,205.5889 Q23.7617,203.937 23.7617,200.8159 Q23.7617,197.6865 25.0815,196.0347 Q26.4014,194.3828 28.9082,194.3828 Q29.6138,194.3828 30.2612,194.5322 Q30.9087,194.6816 31.4731,194.9805 L31.4731,197.7031 Q30.8423,197.1221 30.2488,196.8523 Q29.6553,196.5825 29.0244,196.5825 Q27.6797,196.5825 26.9949,197.6492 Q26.3101,198.7158 26.3101,200.8159 Q26.3101,202.9077 26.9949,203.9744 Q27.6797,205.041 29.0244,205.041 Q29.6553,205.041 30.2488,204.7712 Q30.8423,204.5015 31.4731,203.9204 Z "/><text fill="#000000" font-family="sans-serif" font-size="12" lengthAdjust="spacingAndGlyphs" textLength="91" x="42.5" y="205.5352">UserServiceImpl</text><rect fill="#FEFECE" filter="url(#f1)" height="32" style="stroke: #A80036; stroke-width: 1.5;" width="98" x="37" y="93"/><ellipse cx="52" cy="109" fill="#ADD1B2" rx="11" ry="11" style="stroke: #A80036; stroke-width: 1.0;"/><path d="M54.9731,114.6431 Q54.3921,114.9419 53.7529,115.0913 Q53.1138,115.2407 52.4082,115.2407 Q49.9014,115.2407 48.5815,113.5889 Q47.2617,111.937 47.2617,108.8159 Q47.2617,105.6865 48.5815,104.0347 Q49.9014,102.3828 52.4082,102.3828 Q53.1138,102.3828 53.7612,102.5322 Q54.4087,102.6816 54.9731,102.9805 L54.9731,105.7031 Q54.3423,105.1221 53.7488,104.8523 Q53.1553,104.5825 52.5244,104.5825 Q51.1797,104.5825 50.4949,105.6492 Q49.8101,106.7158 49.8101,108.8159 Q49.8101,110.9077 50.4949,111.9744 Q51.1797,113.041 52.5244,113.041 Q53.1553,113.041 53.7488,112.7712 Q54.3423,112.5015 54.9731,111.9204 Z "/><text fill="#000000" font-family="sans-serif" font-size="12" lengthAdjust="spacingAndGlyphs" textLength="66" x="66" y="113.5352">UserService</text><polygon fill="#FBFB77" filter="url(#f1)" points="175.5,8,175.5,33.3105,300.5,33.3105,300.5,18,290.5,8,175.5,8" style="stroke: #A80036; stroke-width: 1.0;"/><polygon fill="#FBFB77" points="175.5,8,175.5,33.3105,234,33.3105,238,92.739,242,33.3105,300.5,33.3105,300.5,18,290.5,8,175.5,8" style="stroke: #A80036; stroke-width: 1.0;"/><line style="stroke: #A80036; stroke-width: 1.0;" x1="290.5" x2="290.5" y1="8" y2="18"/><line style="stroke: #A80036; stroke-width: 1.0;" x1="300.5" x2="290.5" y1="18" y2="18"/><text fill="#000000" font-family="sans-serif" font-size="13" lengthAdjust="spacingAndGlyphs" textLength="104" x="181.5" y="25.5684">インターフェース</text><polygon fill="#FBFB77" filter="url(#f1)" points="207.5,277,207.5,302.3105,280.5,302.3105,280.5,287,270.5,277,207.5,277" style="stroke: #A80036; stroke-width: 1.0;"/><polygon fill="#FBFB77" points="207.5,277,207.5,302.3105,280.5,302.3105,280.5,287,270.5,277,248,277,244,217.0672,240,277,207.5,277" style="stroke: #A80036; stroke-width: 1.0;"/><line style="stroke: #A80036; stroke-width: 1.0;" x1="270.5" x2="270.5" y1="277" y2="287"/><line style="stroke: #A80036; stroke-width: 1.0;" x1="280.5" x2="270.5" y1="287" y2="287"/><text fill="#000000" font-family="sans-serif" font-size="13" lengthAdjust="spacingAndGlyphs" textLength="52" x="213.5" y="294.5684">サービス</text><polygon fill="#FBFB77" filter="url(#f1)" points="36.5,8,36.5,33.3105,135.5,33.3105,135.5,18,125.5,8,36.5,8" style="stroke: #A80036; stroke-width: 1.0;"/><polygon fill="#FBFB77" points="36.5,8,36.5,33.3105,82,33.3105,86,92.739,90,33.3105,135.5,33.3105,135.5,18,125.5,8,36.5,8" style="stroke: #A80036; stroke-width: 1.0;"/><line style="stroke: #A80036; stroke-width: 1.0;" x1="125.5" x2="125.5" y1="8" y2="18"/><line style="stroke: #A80036; stroke-width: 1.0;" x1="135.5" x2="125.5" y1="18" y2="18"/><text fill="#000000" font-family="sans-serif" font-size="13" lengthAdjust="spacingAndGlyphs" textLength="78" x="42.5" y="25.5684">クライアント</text><polygon fill="#FBFB77" filter="url(#f1)" points="6,277,6,302.3105,144,302.3105,144,287,134,277,6,277" style="stroke: #A80036; stroke-width: 1.0;"/><polygon fill="#FBFB77" points="6,277,6,302.3105,144,302.3105,144,287,134,277,79,277,75,217.0672,71,277,6,277" style="stroke: #A80036; stroke-width: 1.0;"/><line style="stroke: #A80036; stroke-width: 1.0;" x1="134" x2="134" y1="277" y2="287"/><line style="stroke: #A80036; stroke-width: 1.0;" x1="144" x2="134" y1="287" y2="287"/><text fill="#000000" font-family="sans-serif" font-size="13" lengthAdjust="spacingAndGlyphs" textLength="117" x="12" y="294.5684">インジェクタ（？）</text><path d="M240.374,145.615 C241.287,159.31 242.281,174.22 242.997,184.958 " fill="none" style="stroke: #A80036; stroke-width: 1.0;"/><polygon fill="none" points="233.364,145.689,239.018,125.267,247.333,144.757,233.364,145.689" style="stroke: #A80036; stroke-width: 1.0;"/><path d="M135.281,109 C142.884,109 150.487,109 158.09,109 " fill="none" style="stroke: #A80036; stroke-width: 1.0;"/><polygon fill="none" points="158.215,102,178.214,109,158.214,116,158.215,102" style="stroke: #A80036; stroke-width: 1.0;"/><path d="M136.725,201 C141.766,201 146.808,201 151.849,201 " fill="none" style="stroke: #A80036; stroke-width: 1.0;"/><polygon fill="none" points="151.924,194,171.924,201,151.924,207.9999,151.924,194" style="stroke: #A80036; stroke-width: 1.0;"/><path d="M76.8384,184.958 C78.1668,174.09 80.0172,158.95 81.7075,145.12 " fill="none" style="stroke: #A80036; stroke-width: 1.0;"/><polygon fill="none" points="74.7592,144.27,84.134,125.267,88.6558,145.969,74.7592,144.27" style="stroke: #A80036; stroke-width: 1.0;"/></g></svg>