<?xml version="1.0" encoding="UTF-8" standalone="yes"?><svg xmlns="http://www.w3.org/2000/svg" xmlns:xlink="http://www.w3.org/1999/xlink" height="311px" style="width:295px;height:311px;" version="1.1" viewBox="0 0 295 311" width="295px"><defs><filter height="300%" id="f1" width="300%" x="-1" y="-1"><feGaussianBlur result="blurOut" stdDeviation="2.0"/><feColorMatrix in="blurOut" result="blurOut2" type="matrix" values="0 0 0 0 0 0 0 0 0 0 0 0 0 0 0 0 0 0 .4 0"/><feOffset dx="4.0" dy="4.0" in="blurOut2" result="blurOut3"/><feBlend in="SourceGraphic" in2="blurOut3" mode="normal"/></filter></defs><g><rect fill="#FEFECE" filter="url(#f1)" height="32" style="stroke: #A80036; stroke-width: 1.5;" width="119" x="164" y="93"/><ellipse cx="179" cy="109" fill="#B4A7E5" rx="11" ry="11" style="stroke: #A80036; stroke-width: 1.0;"/><path d="M174.9277,104.7651 L174.9277,102.6069 L182.3071,102.6069 L182.3071,104.7651 L179.8418,104.7651 L179.8418,112.8418 L182.3071,112.8418 L182.3071,115 L174.9277,115 L174.9277,112.8418 L177.3931,112.8418 L177.3931,104.7651 Z "/><text fill="#000000" font-family="sans-serif" font-size="12" font-style="italic" lengthAdjust="spacingAndGlyphs" textLength="87" x="193" y="113.5352">UserRepository</text><rect fill="#FEFECE" filter="url(#f1)" height="32" style="stroke: #A80036; stroke-width: 1.5;" width="144" x="73.5" y="185"/><ellipse cx="88.5" cy="201" fill="#ADD1B2" rx="11" ry="11" style="stroke: #A80036; stroke-width: 1.0;"/><path d="M91.4731,206.6431 Q90.8921,206.9419 90.2529,207.0913 Q89.6138,207.2407 88.9082,207.2407 Q86.4014,207.2407 85.0815,205.5889 Q83.7617,203.937 83.7617,200.8159 Q83.7617,197.6865 85.0815,196.0347 Q86.4014,194.3828 88.9082,194.3828 Q89.6138,194.3828 90.2612,194.5322 Q90.9087,194.6816 91.4731,194.9805 L91.4731,197.7031 Q90.8423,197.1221 90.2488,196.8523 Q89.6553,196.5825 89.0244,196.5825 Q87.6797,196.5825 86.9949,197.6492 Q86.3101,198.7158 86.3101,200.8159 Q86.3101,202.9077 86.9949,203.9744 Q87.6797,205.041 89.0244,205.041 Q89.6553,205.041 90.2488,204.7712 Q90.8423,204.5015 91.4731,203.9204 Z "/><text fill="#000000" font-family="sans-serif" font-size="12" lengthAdjust="spacingAndGlyphs" textLength="112" x="102.5" y="205.5352">UserRepositoryImpl</text><rect fill="#FEFECE" filter="url(#f1)" height="32" style="stroke: #A80036; stroke-width: 1.5;" width="123" x="6" y="93"/><ellipse cx="21" cy="109" fill="#ADD1B2" rx="11" ry="11" style="stroke: #A80036; stroke-width: 1.0;"/><path d="M23.9731,114.6431 Q23.3921,114.9419 22.7529,115.0913 Q22.1138,115.2407 21.4082,115.2407 Q18.9014,115.2407 17.5815,113.5889 Q16.2617,111.937 16.2617,108.8159 Q16.2617,105.6865 17.5815,104.0347 Q18.9014,102.3828 21.4082,102.3828 Q22.1138,102.3828 22.7612,102.5322 Q23.4087,102.6816 23.9731,102.9805 L23.9731,105.7031 Q23.3423,105.1221 22.7488,104.8523 Q22.1553,104.5825 21.5244,104.5825 Q20.1797,104.5825 19.4949,105.6492 Q18.8101,106.7158 18.8101,108.8159 Q18.8101,110.9077 19.4949,111.9744 Q20.1797,113.041 21.5244,113.041 Q22.1553,113.041 22.7488,112.7712 Q23.3423,112.5015 23.9731,111.9204 Z "/><text fill="#000000" font-family="sans-serif" font-size="12" lengthAdjust="spacingAndGlyphs" textLength="91" x="35" y="113.5352">UserServiceImpl</text><polygon fill="#FBFB77" filter="url(#f1)" points="161,8,161,33.3105,286,33.3105,286,18,276,8,161,8" style="stroke: #A80036; stroke-width: 1.0;"/><polygon fill="#FBFB77" points="161,8,161,33.3105,219.5,33.3105,223.5,92.739,227.5,33.3105,286,33.3105,286,18,276,8,161,8" style="stroke: #A80036; stroke-width: 1.0;"/><line style="stroke: #A80036; stroke-width: 1.0;" x1="276" x2="276" y1="8" y2="18"/><line style="stroke: #A80036; stroke-width: 1.0;" x1="286" x2="276" y1="18" y2="18"/><text fill="#000000" font-family="sans-serif" font-size="13" lengthAdjust="spacingAndGlyphs" textLength="104" x="167" y="25.5684">インターフェース</text><polygon fill="#FBFB77" filter="url(#f1)" points="109,277,109,302.3105,182,302.3105,182,287,172,277,109,277" style="stroke: #A80036; stroke-width: 1.0;"/><polygon fill="#FBFB77" points="109,277,109,302.3105,182,302.3105,182,287,172,277,149.5,277,145.5,217.0672,141.5,277,109,277" style="stroke: #A80036; stroke-width: 1.0;"/><line style="stroke: #A80036; stroke-width: 1.0;" x1="172" x2="172" y1="277" y2="287"/><line style="stroke: #A80036; stroke-width: 1.0;" x1="182" x2="172" y1="287" y2="287"/><text fill="#000000" font-family="sans-serif" font-size="13" lengthAdjust="spacingAndGlyphs" textLength="52" x="115" y="294.5684">サービス</text><polygon fill="#FBFB77" filter="url(#f1)" points="18,8,18,33.3105,117,33.3105,117,18,107,8,18,8" style="stroke: #A80036; stroke-width: 1.0;"/><polygon fill="#FBFB77" points="18,8,18,33.3105,63.5,33.3105,67.5,92.739,71.5,33.3105,117,33.3105,117,18,107,8,18,8" style="stroke: #A80036; stroke-width: 1.0;"/><line style="stroke: #A80036; stroke-width: 1.0;" x1="107" x2="107" y1="8" y2="18"/><line style="stroke: #A80036; stroke-width: 1.0;" x1="117" x2="107" y1="18" y2="18"/><text fill="#000000" font-family="sans-serif" font-size="13" lengthAdjust="spacingAndGlyphs" textLength="78" x="24" y="25.5684">クライアント</text><path d="M196.87,140.727 C183.931,155.657 168.964,172.926 158.536,184.958 " fill="none" style="stroke: #A80036; stroke-width: 1.0;"/><polygon fill="none" points="191.88,135.797,210.268,125.267,202.46,144.966,191.88,135.797" style="stroke: #A80036; stroke-width: 1.0;"/><path d="M129.047,109 C138.892,109 148.736,109 158.581,109 " fill="none" style="stroke: #A80036; stroke-width: 1.0; stroke-dasharray: 7.0,7.0;"/><polygon fill="#A80036" points="163.729,109,154.729,105,158.729,109,154.729,113,163.729,109" style="stroke: #A80036; stroke-width: 1.0;"/><path d="M80.7316,125.267 C91.2161,137.365 106.198,154.651 119.112,169.552 " fill="none" style="stroke: #A80036; stroke-width: 1.0;"/><polygon fill="none" points="124.655,165.26,132.464,184.958,114.075,174.429,124.655,165.26" style="stroke: #A80036; stroke-width: 1.0;"/></g></svg>