<?xml version="1.0" encoding="UTF-8" standalone="yes"?><svg xmlns="http://www.w3.org/2000/svg" xmlns:xlink="http://www.w3.org/1999/xlink" height="311px" style="width:301px;height:311px;" version="1.1" viewBox="0 0 301 311" width="301px"><defs><filter height="300%" id="f1" width="300%" x="-1" y="-1"><feGaussianBlur result="blurOut" stdDeviation="2.0"/><feColorMatrix in="blurOut" result="blurOut2" type="matrix" values="0 0 0 0 0 0 0 0 0 0 0 0 0 0 0 0 0 0 .4 0"/><feOffset dx="4.0" dy="4.0" in="blurOut2" result="blurOut3"/><feBlend in="SourceGraphic" in2="blurOut3" mode="normal"/></filter></defs><g><rect fill="#FEFECE" filter="url(#f1)" height="32" style="stroke: #A80036; stroke-width: 1.5;" width="119" x="164" y="93"/><ellipse cx="179" cy="109" fill="#B4A7E5" rx="11" ry="11" style="stroke: #A80036; stroke-width: 1.0;"/><path d="M174.9277,104.7651 L174.9277,102.6069 L182.3071,102.6069 L182.3071,104.7651 L179.8418,104.7651 L179.8418,112.8418 L182.3071,112.8418 L182.3071,115 L174.9277,115 L174.9277,112.8418 L177.3931,112.8418 L177.3931,104.7651 Z "/><text fill="#000000" font-family="sans-serif" font-size="12" font-style="italic" lengthAdjust="spacingAndGlyphs" textLength="87" x="193" y="113.5352">UserRepository</text><rect fill="#FEFECE" filter="url(#f1)" height="32" style="stroke: #A80036; stroke-width: 1.5;" width="144" x="148.5" y="185"/><ellipse cx="163.5" cy="201" fill="#ADD1B2" rx="11" ry="11" style="stroke: #A80036; stroke-width: 1.0;"/><path d="M166.4731,206.6431 Q165.8921,206.9419 165.2529,207.0913 Q164.6138,207.2407 163.9082,207.2407 Q161.4014,207.2407 160.0815,205.5889 Q158.7617,203.937 158.7617,200.8159 Q158.7617,197.6865 160.0815,196.0347 Q161.4014,194.3828 163.9082,194.3828 Q164.6138,194.3828 165.2612,194.5322 Q165.9087,194.6816 166.4731,194.9805 L166.4731,197.7031 Q165.8423,197.1221 165.2488,196.8523 Q164.6553,196.5825 164.0244,196.5825 Q162.6797,196.5825 161.9949,197.6492 Q161.3101,198.7158 161.3101,200.8159 Q161.3101,202.9077 161.9949,203.9744 Q162.6797,205.041 164.0244,205.041 Q164.6553,205.041 165.2488,204.7712 Q165.8423,204.5015 166.4731,203.9204 Z "/><text fill="#000000" font-family="sans-serif" font-size="12" lengthAdjust="spacingAndGlyphs" textLength="112" x="177.5" y="205.5352">UserRepositoryImpl</text><rect fill="#FEFECE" filter="url(#f1)" height="32" style="stroke: #A80036; stroke-width: 1.5;" width="123" x="6" y="93"/><ellipse cx="21" cy="109" fill="#ADD1B2" rx="11" ry="11" style="stroke: #A80036; stroke-width: 1.0;"/><path d="M23.9731,114.6431 Q23.3921,114.9419 22.7529,115.0913 Q22.1138,115.2407 21.4082,115.2407 Q18.9014,115.2407 17.5815,113.5889 Q16.2617,111.937 16.2617,108.8159 Q16.2617,105.6865 17.5815,104.0347 Q18.9014,102.3828 21.4082,102.3828 Q22.1138,102.3828 22.7612,102.5322 Q23.4087,102.6816 23.9731,102.9805 L23.9731,105.7031 Q23.3423,105.1221 22.7488,104.8523 Q22.1553,104.5825 21.5244,104.5825 Q20.1797,104.5825 19.4949,105.6492 Q18.8101,106.7158 18.8101,108.8159 Q18.8101,110.9077 19.4949,111.9744 Q20.1797,113.041 21.5244,113.041 Q22.1553,113.041 22.7488,112.7712 Q23.3423,112.5015 23.9731,111.9204 Z "/><text fill="#000000" font-family="sans-serif" font-size="12" lengthAdjust="spacingAndGlyphs" textLength="91" x="35" y="113.5352">UserServiceImpl</text><rect fill="#FEFECE" filter="url(#f1)" height="32" style="stroke: #A80036; stroke-width: 1.5;" width="75" x="35" y="185"/><ellipse cx="50" cy="201" fill="#FFFFFF" rx="11" ry="11" style="stroke: #A80036; stroke-width: 1.0;"/><path d="M48.1523,204.9009 L50.3687,204.9009 L50.3687,207.25 L48.1523,207.25 Z M50.3687,203.9214 L48.1523,203.9214 L48.1523,202.6431 Q48.1523,201.8213 48.4097,201.2402 Q48.667,200.6592 49.3311,200.0117 L50.0781,199.2729 Q50.6011,198.7666 50.7878,198.4346 Q50.9746,198.1025 50.9746,197.7456 Q50.9746,197.1895 50.5928,196.9072 Q50.2109,196.625 49.4473,196.625 Q48.75,196.625 47.9905,196.9197 Q47.231,197.2144 46.4341,197.7954 L46.4341,195.5708 Q47.2476,195.106 48.0818,194.8694 Q48.916,194.6328 49.7544,194.6328 Q51.4312,194.6328 52.3857,195.4131 Q53.3403,196.1934 53.3403,197.563 Q53.3403,198.1938 53.0581,198.7375 Q52.7759,199.2813 51.9956,200.0449 L51.2651,200.7588 Q50.7007,201.3066 50.543,201.6553 Q50.3853,202.0039 50.3853,202.5103 Q50.3853,202.585 50.3811,202.6846 Q50.377,202.7842 50.3687,202.9004 Z "/><text fill="#000000" font-family="sans-serif" font-size="12" lengthAdjust="spacingAndGlyphs" textLength="43" x="64" y="205.5352">Injector</text><polygon fill="#FBFB77" filter="url(#f1)" points="167.5,8,167.5,33.3105,279.5,33.3105,279.5,18,269.5,8,167.5,8" style="stroke: #A80036; stroke-width: 1.0;"/><polygon fill="#FBFB77" points="167.5,8,167.5,33.3105,219.5,33.3105,223.5,92.739,227.5,33.3105,279.5,33.3105,279.5,18,269.5,8,167.5,8" style="stroke: #A80036; stroke-width: 1.0;"/><line style="stroke: #A80036; stroke-width: 1.0;" x1="269.5" x2="269.5" y1="8" y2="18"/><line style="stroke: #A80036; stroke-width: 1.0;" x1="279.5" x2="269.5" y1="18" y2="18"/><text fill="#000000" font-family="sans-serif" font-size="13" lengthAdjust="spacingAndGlyphs" textLength="91" x="173.5" y="25.5684">インタフェース</text><polygon fill="#FBFB77" filter="url(#f1)" points="184,277,184,302.3105,257,302.3105,257,287,247,277,184,277" style="stroke: #A80036; stroke-width: 1.0;"/><polygon fill="#FBFB77" points="184,277,184,302.3105,257,302.3105,257,287,247,277,224.5,277,220.5,217.0672,216.5,277,184,277" style="stroke: #A80036; stroke-width: 1.0;"/><line style="stroke: #A80036; stroke-width: 1.0;" x1="247" x2="247" y1="277" y2="287"/><line style="stroke: #A80036; stroke-width: 1.0;" x1="257" x2="247" y1="287" y2="287"/><text fill="#000000" font-family="sans-serif" font-size="13" lengthAdjust="spacingAndGlyphs" textLength="52" x="190" y="294.5684">サービス</text><polygon fill="#FBFB77" filter="url(#f1)" points="18,8,18,33.3105,117,33.3105,117,18,107,8,18,8" style="stroke: #A80036; stroke-width: 1.0;"/><polygon fill="#FBFB77" points="18,8,18,33.3105,63.5,33.3105,67.5,92.739,71.5,33.3105,117,33.3105,117,18,107,8,18,8" style="stroke: #A80036; stroke-width: 1.0;"/><line style="stroke: #A80036; stroke-width: 1.0;" x1="107" x2="107" y1="8" y2="18"/><line style="stroke: #A80036; stroke-width: 1.0;" x1="117" x2="107" y1="18" y2="18"/><text fill="#000000" font-family="sans-serif" font-size="13" lengthAdjust="spacingAndGlyphs" textLength="78" x="24" y="25.5684">クライアント</text><polygon fill="#FBFB77" filter="url(#f1)" points="23,277,23,302.3105,122,302.3105,122,287,112,277,23,277" style="stroke: #A80036; stroke-width: 1.0;"/><polygon fill="#FBFB77" points="23,277,23,302.3105,122,302.3105,122,287,112,277,76.5,277,72.5,217.0672,68.5,277,23,277" style="stroke: #A80036; stroke-width: 1.0;"/><line style="stroke: #A80036; stroke-width: 1.0;" x1="112" x2="112" y1="277" y2="287"/><line style="stroke: #A80036; stroke-width: 1.0;" x1="122" x2="112" y1="287" y2="287"/><text fill="#000000" font-family="sans-serif" font-size="13" lengthAdjust="spacingAndGlyphs" textLength="78" x="29" y="294.5684">インジェクタ</text><path d="M222.313,145.615 C221.856,159.31 221.359,174.22 221.001,184.958 " fill="none" style="stroke: #A80036; stroke-width: 1.0;"/><polygon fill="none" points="215.329,145.023,222.991,125.267,229.321,145.489,215.329,145.023" style="stroke: #A80036; stroke-width: 1.0;"/><path d="M129.047,109 C138.892,109 148.736,109 158.581,109 " fill="none" style="stroke: #A80036; stroke-width: 1.0; stroke-dasharray: 7.0,7.0;"/><polygon fill="#A80036" points="163.729,109,154.729,105,158.729,109,154.729,113,163.729,109" style="stroke: #A80036; stroke-width: 1.0;"/><path d="M110.078,201 C121.175,201 132.272,201 143.368,201 " fill="none" style="stroke: #A80036; stroke-width: 1.0; stroke-dasharray: 7.0,7.0;"/><polygon fill="#A80036" points="148.467,201,139.467,197,143.467,201,139.467,205,148.467,201" style="stroke: #A80036; stroke-width: 1.0;"/><path d="M71.6643,184.958 C70.8377,170.079 69.5663,147.194 68.6458,130.624 " fill="none" style="stroke: #A80036; stroke-width: 1.0; stroke-dasharray: 7.0,7.0;"/><polygon fill="#A80036" points="68.3482,125.267,64.8558,134.4759,68.6268,130.2592,72.8434,134.0302,68.3482,125.267" style="stroke: #A80036; stroke-width: 1.0;"/></g></svg>